<mxfile host="Electron" modified="2023-05-27T17:26:55.785Z" agent="Mozilla/5.0 (Windows NT 10.0; Win64; x64) AppleWebKit/537.36 (KHTML, like Gecko) draw.io/21.1.2 Chrome/106.0.5249.199 Electron/21.4.3 Safari/537.36" etag="LUdtc4AvoKR6-eVsOBjd" version="21.1.2" type="device">
  <diagram name="Page-1" id="-8NdUKsVODPIWI0RmNN9">
    <mxGraphModel dx="1206" dy="817" grid="1" gridSize="10" guides="1" tooltips="1" connect="1" arrows="1" fold="1" page="1" pageScale="1" pageWidth="850" pageHeight="1100" math="0" shadow="0">
      <root>
        <mxCell id="0" />
        <mxCell id="1" parent="0" />
        <mxCell id="G6viSD0LB8z9obWxYMiL-1" value="ILanguage" style="swimlane;fontStyle=3;align=center;verticalAlign=top;childLayout=stackLayout;horizontal=1;startSize=26;horizontalStack=0;resizeParent=1;resizeParentMax=0;resizeLast=0;collapsible=1;marginBottom=0;" parent="1" vertex="1">
          <mxGeometry x="230" y="280" width="160" height="80" as="geometry" />
        </mxCell>
        <mxCell id="G6viSD0LB8z9obWxYMiL-3" value="" style="line;strokeWidth=1;fillColor=none;align=left;verticalAlign=middle;spacingTop=-1;spacingLeft=3;spacingRight=3;rotatable=0;labelPosition=right;points=[];portConstraint=eastwest;strokeColor=inherit;" parent="G6viSD0LB8z9obWxYMiL-1" vertex="1">
          <mxGeometry y="26" width="160" height="8" as="geometry" />
        </mxCell>
        <mxCell id="G6viSD0LB8z9obWxYMiL-4" value="+build()&#xa;+execute()" style="text;strokeColor=none;fillColor=none;align=left;verticalAlign=top;spacingLeft=4;spacingRight=4;overflow=hidden;rotatable=0;points=[[0,0.5],[1,0.5]];portConstraint=eastwest;fontStyle=3" parent="G6viSD0LB8z9obWxYMiL-1" vertex="1">
          <mxGeometry y="34" width="160" height="46" as="geometry" />
        </mxCell>
        <mxCell id="G6viSD0LB8z9obWxYMiL-5" value="CPPLanguage" style="swimlane;fontStyle=1;align=center;verticalAlign=top;childLayout=stackLayout;horizontal=1;startSize=26;horizontalStack=0;resizeParent=1;resizeParentMax=0;resizeLast=0;collapsible=1;marginBottom=0;" parent="1" vertex="1">
          <mxGeometry x="30" y="210" width="160" height="70" as="geometry" />
        </mxCell>
        <mxCell id="G6viSD0LB8z9obWxYMiL-7" value="" style="line;strokeWidth=1;fillColor=none;align=left;verticalAlign=middle;spacingTop=-1;spacingLeft=3;spacingRight=3;rotatable=0;labelPosition=right;points=[];portConstraint=eastwest;strokeColor=inherit;" parent="G6viSD0LB8z9obWxYMiL-5" vertex="1">
          <mxGeometry y="26" width="160" height="8" as="geometry" />
        </mxCell>
        <mxCell id="G6viSD0LB8z9obWxYMiL-8" value="+build()&#xa;+execute()" style="text;strokeColor=none;fillColor=none;align=left;verticalAlign=top;spacingLeft=4;spacingRight=4;overflow=hidden;rotatable=0;points=[[0,0.5],[1,0.5]];portConstraint=eastwest;" parent="G6viSD0LB8z9obWxYMiL-5" vertex="1">
          <mxGeometry y="34" width="160" height="36" as="geometry" />
        </mxCell>
        <mxCell id="G6viSD0LB8z9obWxYMiL-9" value="PythonLanguage" style="swimlane;fontStyle=1;align=center;verticalAlign=top;childLayout=stackLayout;horizontal=1;startSize=26;horizontalStack=0;resizeParent=1;resizeParentMax=0;resizeLast=0;collapsible=1;marginBottom=0;" parent="1" vertex="1">
          <mxGeometry x="30" y="360" width="160" height="70" as="geometry" />
        </mxCell>
        <mxCell id="G6viSD0LB8z9obWxYMiL-10" value="" style="line;strokeWidth=1;fillColor=none;align=left;verticalAlign=middle;spacingTop=-1;spacingLeft=3;spacingRight=3;rotatable=0;labelPosition=right;points=[];portConstraint=eastwest;strokeColor=inherit;" parent="G6viSD0LB8z9obWxYMiL-9" vertex="1">
          <mxGeometry y="26" width="160" height="8" as="geometry" />
        </mxCell>
        <mxCell id="G6viSD0LB8z9obWxYMiL-11" value="+build()&#xa;+execute()" style="text;strokeColor=none;fillColor=none;align=left;verticalAlign=top;spacingLeft=4;spacingRight=4;overflow=hidden;rotatable=0;points=[[0,0.5],[1,0.5]];portConstraint=eastwest;" parent="G6viSD0LB8z9obWxYMiL-9" vertex="1">
          <mxGeometry y="34" width="160" height="36" as="geometry" />
        </mxCell>
        <mxCell id="G6viSD0LB8z9obWxYMiL-12" style="edgeStyle=orthogonalEdgeStyle;rounded=0;orthogonalLoop=1;jettySize=auto;html=1;entryX=0.25;entryY=0;entryDx=0;entryDy=0;endArrow=block;endFill=0;" parent="1" source="G6viSD0LB8z9obWxYMiL-7" target="G6viSD0LB8z9obWxYMiL-1" edge="1">
          <mxGeometry relative="1" as="geometry" />
        </mxCell>
        <mxCell id="G6viSD0LB8z9obWxYMiL-13" style="edgeStyle=orthogonalEdgeStyle;rounded=0;orthogonalLoop=1;jettySize=auto;html=1;entryX=0.292;entryY=1.014;entryDx=0;entryDy=0;entryPerimeter=0;endArrow=block;endFill=0;" parent="1" source="G6viSD0LB8z9obWxYMiL-11" target="G6viSD0LB8z9obWxYMiL-4" edge="1">
          <mxGeometry relative="1" as="geometry" />
        </mxCell>
        <mxCell id="G6viSD0LB8z9obWxYMiL-14" value="AbstractProgrammer" style="swimlane;fontStyle=1;align=center;verticalAlign=top;childLayout=stackLayout;horizontal=1;startSize=26;horizontalStack=0;resizeParent=1;resizeParentMax=0;resizeLast=0;collapsible=1;marginBottom=0;" parent="1" vertex="1">
          <mxGeometry x="450" y="270" width="160" height="130" as="geometry" />
        </mxCell>
        <mxCell id="G6viSD0LB8z9obWxYMiL-15" value="+ language: ILanguage&#xa;+ project&#xa;" style="text;strokeColor=none;fillColor=none;align=left;verticalAlign=top;spacingLeft=4;spacingRight=4;overflow=hidden;rotatable=0;points=[[0,0.5],[1,0.5]];portConstraint=eastwest;fontStyle=0" parent="G6viSD0LB8z9obWxYMiL-14" vertex="1">
          <mxGeometry y="26" width="160" height="44" as="geometry" />
        </mxCell>
        <mxCell id="G6viSD0LB8z9obWxYMiL-16" value="" style="line;strokeWidth=1;fillColor=none;align=left;verticalAlign=middle;spacingTop=-1;spacingLeft=3;spacingRight=3;rotatable=0;labelPosition=right;points=[];portConstraint=eastwest;strokeColor=inherit;" parent="G6viSD0LB8z9obWxYMiL-14" vertex="1">
          <mxGeometry y="70" width="160" height="8" as="geometry" />
        </mxCell>
        <mxCell id="G6viSD0LB8z9obWxYMiL-17" value="+ work()&#xa;+earn()" style="text;strokeColor=none;fillColor=none;align=left;verticalAlign=top;spacingLeft=4;spacingRight=4;overflow=hidden;rotatable=0;points=[[0,0.5],[1,0.5]];portConstraint=eastwest;fontStyle=1" parent="G6viSD0LB8z9obWxYMiL-14" vertex="1">
          <mxGeometry y="78" width="160" height="52" as="geometry" />
        </mxCell>
        <mxCell id="G6viSD0LB8z9obWxYMiL-18" value="CorporateProgrammer" style="swimlane;fontStyle=1;align=center;verticalAlign=top;childLayout=stackLayout;horizontal=1;startSize=26;horizontalStack=0;resizeParent=1;resizeParentMax=0;resizeLast=0;collapsible=1;marginBottom=0;" parent="1" vertex="1">
          <mxGeometry x="660" y="184" width="180" height="100" as="geometry" />
        </mxCell>
        <mxCell id="G6viSD0LB8z9obWxYMiL-20" value="" style="line;strokeWidth=1;fillColor=none;align=left;verticalAlign=middle;spacingTop=-1;spacingLeft=3;spacingRight=3;rotatable=0;labelPosition=right;points=[];portConstraint=eastwest;strokeColor=inherit;" parent="G6viSD0LB8z9obWxYMiL-18" vertex="1">
          <mxGeometry y="26" width="180" height="8" as="geometry" />
        </mxCell>
        <mxCell id="G6viSD0LB8z9obWxYMiL-21" value="+ __init__(ILanguage, project)&#xa;+ work()&#xa;+ earn()" style="text;strokeColor=none;fillColor=none;align=left;verticalAlign=top;spacingLeft=4;spacingRight=4;overflow=hidden;rotatable=0;points=[[0,0.5],[1,0.5]];portConstraint=eastwest;" parent="G6viSD0LB8z9obWxYMiL-18" vertex="1">
          <mxGeometry y="34" width="180" height="66" as="geometry" />
        </mxCell>
        <mxCell id="G6viSD0LB8z9obWxYMiL-22" value="FreelanceProgrammer" style="swimlane;fontStyle=1;align=center;verticalAlign=top;childLayout=stackLayout;horizontal=1;startSize=26;horizontalStack=0;resizeParent=1;resizeParentMax=0;resizeLast=0;collapsible=1;marginBottom=0;" parent="1" vertex="1">
          <mxGeometry x="660" y="400" width="170" height="100" as="geometry" />
        </mxCell>
        <mxCell id="G6viSD0LB8z9obWxYMiL-24" value="" style="line;strokeWidth=1;fillColor=none;align=left;verticalAlign=middle;spacingTop=-1;spacingLeft=3;spacingRight=3;rotatable=0;labelPosition=right;points=[];portConstraint=eastwest;strokeColor=inherit;" parent="G6viSD0LB8z9obWxYMiL-22" vertex="1">
          <mxGeometry y="26" width="170" height="8" as="geometry" />
        </mxCell>
        <mxCell id="G6viSD0LB8z9obWxYMiL-25" value="+ __init__(ILanguage, project)&#xa;+ work()&#xa;+ earn()" style="text;strokeColor=none;fillColor=none;align=left;verticalAlign=top;spacingLeft=4;spacingRight=4;overflow=hidden;rotatable=0;points=[[0,0.5],[1,0.5]];portConstraint=eastwest;" parent="G6viSD0LB8z9obWxYMiL-22" vertex="1">
          <mxGeometry y="34" width="170" height="66" as="geometry" />
        </mxCell>
        <mxCell id="G6viSD0LB8z9obWxYMiL-26" style="edgeStyle=orthogonalEdgeStyle;rounded=0;orthogonalLoop=1;jettySize=auto;html=1;entryX=0.75;entryY=0;entryDx=0;entryDy=0;endArrow=block;endFill=0;" parent="1" source="G6viSD0LB8z9obWxYMiL-21" target="G6viSD0LB8z9obWxYMiL-14" edge="1">
          <mxGeometry relative="1" as="geometry" />
        </mxCell>
        <mxCell id="G6viSD0LB8z9obWxYMiL-27" style="edgeStyle=orthogonalEdgeStyle;rounded=0;orthogonalLoop=1;jettySize=auto;html=1;entryX=0.75;entryY=1;entryDx=0;entryDy=0;entryPerimeter=0;endArrow=block;endFill=0;" parent="1" source="G6viSD0LB8z9obWxYMiL-25" target="G6viSD0LB8z9obWxYMiL-17" edge="1">
          <mxGeometry relative="1" as="geometry" />
        </mxCell>
        <mxCell id="G6viSD0LB8z9obWxYMiL-28" value="" style="group" parent="1" vertex="1" connectable="0">
          <mxGeometry x="215" width="420" height="180" as="geometry" />
        </mxCell>
        <mxCell id="G6viSD0LB8z9obWxYMiL-29" value="" style="shape=note;whiteSpace=wrap;html=1;backgroundOutline=1;darkOpacity=0.05;" parent="G6viSD0LB8z9obWxYMiL-28" vertex="1">
          <mxGeometry width="420" height="180" as="geometry" />
        </mxCell>
        <mxCell id="G6viSD0LB8z9obWxYMiL-30" value="&lt;p style=&quot;font-size: 15px;&quot;&gt;&lt;font style=&quot;font-weight: normal; font-size: 15px;&quot;&gt;fr = FreelanceProgrammer(CPPLanguage(), &#39;AAA project&#39;)&lt;br&gt;&lt;/font&gt;&lt;font style=&quot;font-size: 15px;&quot;&gt;fr.work()&lt;br&gt;&lt;/font&gt;&lt;font style=&quot;font-size: 15px;&quot;&gt;fr.earn()&lt;/font&gt;&lt;font style=&quot;font-size: 15px;&quot;&gt;&lt;br&gt;&lt;/font&gt;&lt;font style=&quot;font-size: 15px;&quot;&gt;cp = CorporateProgrammer(PythonLanguage(), &#39;Small Project&#39;)&lt;br&gt;&lt;/font&gt;&lt;span style=&quot;background-color: initial;&quot;&gt;cp.work()&lt;br&gt;cp.earn()&lt;/span&gt;&lt;/p&gt;" style="text;html=1;strokeColor=none;fillColor=none;spacing=5;spacingTop=-20;whiteSpace=wrap;overflow=hidden;rounded=0;" parent="G6viSD0LB8z9obWxYMiL-28" vertex="1">
          <mxGeometry x="6" y="17.22" width="403" height="156.52" as="geometry" />
        </mxCell>
        <mxCell id="G6viSD0LB8z9obWxYMiL-32" value="" style="endArrow=diamondThin;endFill=0;endSize=24;html=1;rounded=0;entryX=0;entryY=0.5;entryDx=0;entryDy=0;exitX=1;exitY=0.087;exitDx=0;exitDy=0;exitPerimeter=0;" parent="1" source="G6viSD0LB8z9obWxYMiL-4" target="G6viSD0LB8z9obWxYMiL-15" edge="1">
          <mxGeometry width="160" relative="1" as="geometry">
            <mxPoint x="340" y="220" as="sourcePoint" />
            <mxPoint x="500" y="220" as="targetPoint" />
          </mxGeometry>
        </mxCell>
        <mxCell id="G6viSD0LB8z9obWxYMiL-35" style="edgeStyle=orthogonalEdgeStyle;rounded=0;orthogonalLoop=1;jettySize=auto;html=1;entryX=0.5;entryY=0;entryDx=0;entryDy=0;dashed=1;fontSize=15;startArrow=none;startFill=0;endArrow=classic;endFill=0;fillColor=#dae8fc;strokeColor=#6c8ebf;" parent="1" source="G6viSD0LB8z9obWxYMiL-30" target="G6viSD0LB8z9obWxYMiL-5" edge="1">
          <mxGeometry relative="1" as="geometry" />
        </mxCell>
        <mxCell id="G6viSD0LB8z9obWxYMiL-36" style="edgeStyle=orthogonalEdgeStyle;rounded=0;orthogonalLoop=1;jettySize=auto;html=1;entryX=0;entryY=0.25;entryDx=0;entryDy=0;dashed=1;fontSize=15;startArrow=none;startFill=0;endArrow=classic;endFill=0;fillColor=#dae8fc;strokeColor=#6c8ebf;" parent="1" source="G6viSD0LB8z9obWxYMiL-29" target="G6viSD0LB8z9obWxYMiL-9" edge="1">
          <mxGeometry relative="1" as="geometry" />
        </mxCell>
        <mxCell id="G6viSD0LB8z9obWxYMiL-37" style="edgeStyle=orthogonalEdgeStyle;rounded=0;orthogonalLoop=1;jettySize=auto;html=1;entryX=0.5;entryY=0;entryDx=0;entryDy=0;dashed=1;fontSize=15;startArrow=none;startFill=0;endArrow=classic;endFill=0;exitX=1.01;exitY=0.544;exitDx=0;exitDy=0;exitPerimeter=0;fillColor=#dae8fc;strokeColor=#6c8ebf;" parent="1" source="G6viSD0LB8z9obWxYMiL-29" target="G6viSD0LB8z9obWxYMiL-18" edge="1">
          <mxGeometry relative="1" as="geometry" />
        </mxCell>
        <mxCell id="G6viSD0LB8z9obWxYMiL-38" style="edgeStyle=orthogonalEdgeStyle;rounded=0;orthogonalLoop=1;jettySize=auto;html=1;entryX=1.008;entryY=0.313;entryDx=0;entryDy=0;entryPerimeter=0;dashed=1;fontSize=15;startArrow=none;startFill=0;endArrow=classic;endFill=0;fillColor=#dae8fc;strokeColor=#6c8ebf;" parent="1" target="G6viSD0LB8z9obWxYMiL-25" edge="1">
          <mxGeometry relative="1" as="geometry">
            <mxPoint x="640" y="70" as="sourcePoint" />
            <Array as="points">
              <mxPoint x="860" y="70" />
              <mxPoint x="860" y="455" />
            </Array>
          </mxGeometry>
        </mxCell>
      </root>
    </mxGraphModel>
  </diagram>
</mxfile>
